<svg width="300" height="300" xmlns="http://www.w3.org/2000/svg" version="1.1">
 <g>
  <title>Layer 1</title>
  <clipPath transform="translate(-1 -1) translate(-4 -1) translate(-7 -15) translate(50 -14) translate(-58 2)" id="cp0">
   <path id="svg_5" d="m-216,-113.99999l841.89,0l0,595.281l-841.89,0l0,-595.281z"/>
  </clipPath>
  <g stroke="null" id="svg_25">
   <path stroke="null" id="svg_2" fill="#fbb040" d="m258.48682,222.0983l-44.2112,0l0,-62.61359l44.2112,0l0,62.61359z"/>
   <path stroke="null" id="svg_3" fill="#fbb040" d="m94.4132,222.53132l-44.2112,0l0,-66.13659l44.2112,0l0,66.13659z"/>
   <path stroke="null" id="svg_4" fill="#ffde18" d="m71.3044,200.41005l165.62932,0l0,44.20532l-165.62932,0l0,-44.20532z"/>
   <g stroke="null" id="svg_6" clip-path="url(#cp0)">
    <path stroke="null" id="svg_17" fill="#19a7df" d="m258.52191,159.39143c0,12.21862 -9.90461,22.12323 -22.12323,22.12323c-12.21666,0 -22.12323,-9.90461 -22.12323,-22.12323c0,-12.21666 9.90657,-22.12323 22.12323,-22.12323c12.21862,0 22.12323,9.90657 22.12323,22.12323"/>
    <path stroke="null" id="svg_18" fill="#92278f" d="m258.52191,222.53228c0,12.21862 -9.90461,22.12323 -22.12323,22.12323c-12.21666,0 -22.12323,-9.90461 -22.12323,-22.12323c0,-12.21666 9.90657,-22.12323 22.12323,-22.12323c12.21862,0 22.12323,9.90657 22.12323,22.12323"/>
    <path stroke="null" id="svg_19" fill="#92278f" d="m151.13538,118.37283c0,12.21862 -9.90461,22.12323 -22.12323,22.12323c-12.21666,0 -22.12127,-9.90461 -22.12127,-22.12323c0,-12.21666 9.90461,-22.12323 22.12127,-22.12323c12.21862,0 22.12323,9.90657 22.12323,22.12323"/>
    <path stroke="null" id="svg_20" fill="#ed2028" d="m202.29326,118.37283c0,12.21862 -9.90461,22.12323 -22.12323,22.12323c-12.21666,0 -22.12127,-9.90461 -22.12127,-22.12323c0,-12.21666 9.90461,-22.12323 22.12127,-22.12323c12.21862,0 22.12323,9.90657 22.12323,22.12323"/>
    <path stroke="null" id="svg_21" fill="#ffde18" d="m175.10135,71.82354c0,12.21862 -9.90461,22.12323 -22.12323,22.12323c-12.21666,0 -22.12127,-9.90461 -22.12127,-22.12323c0,-12.21666 9.90461,-22.12323 22.12127,-22.12323c12.21862,0 22.12323,9.90657 22.12323,22.12323"/>
    <path stroke="null" id="svg_22" fill="#ed2028" d="m94.44672,222.53228c0,12.21862 -9.90461,22.12323 -22.12323,22.12323c-12.21666,0 -22.12127,-9.90461 -22.12127,-22.12323c0,-12.21666 9.90461,-22.12323 22.12127,-22.12323c12.21862,0 22.12323,9.90657 22.12323,22.12323"/>
    <path stroke="null" id="svg_23" fill="#32b14c" d="m94.44672,156.16537c0,12.21862 -9.90461,22.12323 -22.12323,22.12323c-12.21666,0 -22.12127,-9.90461 -22.12127,-22.12323c0,-12.21666 9.90461,-22.12323 22.12127,-22.12323c12.21862,0 22.12323,9.90657 22.12323,22.12323"/>
   </g>
  </g>
 </g>

</svg>