<svg width="300" height="300" xmlns="http://www.w3.org/2000/svg" version="1.1">

 <g>
  <title>Layer 1</title>
  <clipPath stroke="null" transform="translate(0 -2) translate(-27 -11) translate(57 55) translate(-33 -16) translate(19 -3) translate(-7 -6) translate(2 -22) translate(-9 37) translate(29 32) translate(-50 -71) translate(46.9308 46.9308) translate(-32 -51) translate(-211 -112) translate(486.855 415.485) scale(1.91628 1.91628) translate(-486.855 -415.485) translate(143.954 158.373) scale(0.687817 0.687817) translate(-143.954 -158.373) translate(185.013 191.56) scale(1.59751 1.59751) translate(-185.013 -191.56) translate(138.102 142.201) scale(0.669132 0.669132) translate(-138.102 -142.201) translate(170.901 162.122) scale(1.15587 1.15587) translate(-170.901 -162.122) translate(168.734 163.594) scale(0.869802 0.869802) translate(-168.734 -163.594) translate(193.991 188.082) scale(0.903772 0.903772) translate(-193.991 -188.082) translate(188.868 195.61) scale(0.84029 0.84029) translate(-188.868 -195.61) translate(224.765 232.788) scale(1.31678 1.31678) translate(-224.765 -232.788) translate(170.694 176.787) scale(1.59875 1.59875) translate(-170.694 -176.787) translate(131.937 134.865) scale(0.812744 0.812744) translate(-131.937 -134.865)" id="cp0">
   <path stroke="null" id="svg_5" d="m-215.0692,-123.06919l841.89,0l0,595.281l-841.89,0l0,-595.281z"/>
  </clipPath>
  <g stroke="null" id="svg_6" clip-path="url(#cp0)">
   <path stroke="null" id="svg_14" fill="#58595b" d="m34.59342,114.21718l0,21.69641c0,0.38283 0.1178,0.70493 0.35523,0.96629c0.2632,0.26136 0.59818,0.39204 1.00126,0.39204l0.46566,0l0,2.53812l-1.64361,0c-0.76199,0 -1.43011,-0.24847 -2.00252,-0.75094c-0.81168,-0.69021 -1.21476,-1.57183 -1.21476,-2.64303l0,-22.19888l3.03875,0z"/>
   <path stroke="null" id="svg_15" fill="#58595b" d="m42.77888,139.81129l-6.61494,0l0,-2.5381l6.61494,0l0,2.5381z"/>
   <path stroke="null" id="svg_16" fill="#58595b" d="m49.14167,139.81129l-6.61494,0l0,-2.5381l6.61494,0l0,2.5381z"/>
   <path stroke="null" id="svg_17" fill="#58595b" d="m55.50261,139.81129l-6.61494,0l0,-2.5381l6.61494,0l0,2.5381z"/>
   <path stroke="null" id="svg_18" fill="#58595b" d="m61.86539,139.81129l-6.61494,0l0,-2.5381l6.61494,0l0,2.5381z"/>
   <path stroke="null" id="svg_19" fill="#58595b" d="m68.22818,139.81129l-6.61494,0l0,-2.5381l6.61494,0l0,2.5381z"/>
   <path stroke="null" id="svg_20" fill="#58595b" d="m74.58912,139.81129l-6.61494,0l0,-2.5381l6.61494,0l0,2.5381z"/>
   <path stroke="null" id="svg_21" fill="#58595b" d="m81.70192,143.52753c0.4767,0 0.88715,0.17301 1.23317,0.51904c0.34418,0.34602 0.51904,0.76751 0.51904,1.26998c0,0.47486 -0.17485,0.8853 -0.51904,1.23317c-0.34602,0.34418 -0.75647,0.51719 -1.23317,0.51719c-0.4767,0 -0.88715,-0.17301 -1.23317,-0.51719c-0.34418,-0.34786 -0.51719,-0.75831 -0.51719,-1.23317c0,-0.50247 0.17301,-0.92396 0.51719,-1.26998c0.34602,-0.34602 0.75647,-0.51904 1.23317,-0.51904m-4.36026,0c0.4767,0 0.88715,0.17301 1.23317,0.51904c0.34418,0.34602 0.51719,0.76751 0.51719,1.26998c0,0.47486 -0.17301,0.8853 -0.51719,1.23317c-0.34602,0.34418 -0.75647,0.51719 -1.23317,0.51719c-0.4767,0 -0.88899,-0.17301 -1.23317,-0.51719c-0.34602,-0.34786 -0.51904,-0.75831 -0.51904,-1.23317c0,-0.50247 0.17301,-0.92396 0.51904,-1.26998c0.34418,-0.34602 0.75647,-0.51904 1.23317,-0.51904m6.46954,-20.15955l0,13.08263c0,0.8577 -0.28713,1.60864 -0.8577,2.25283c-0.64419,0.73806 -1.43011,1.10617 -2.35959,1.10617l-6.25603,0l0,-2.53628l5.07624,0c0.40676,0 0.75094,-0.1454 1.03623,-0.43069c0.21534,-0.23743 0.3221,-0.54664 0.3221,-0.92948l0,-12.54519l3.03875,0z"/>
   <path stroke="null" id="svg_22" fill="#58595b" d="m98.85991,123.36781l0,13.90536l1.82399,0l0,2.53812l-1.82399,0c-0.06994,2.6191 -0.89267,4.65843 -2.46634,6.11247c-1.16875,1.09513 -2.69273,1.82215 -4.57377,2.17921c-0.71597,0.14356 -1.57367,0.21534 -2.57493,0.21534c-0.40492,0 -0.90555,-0.01288 -1.50005,-0.03681l-1.18163,-1.46508l0,-1.14482c0.69205,0.09571 1.44299,0.14356 2.25283,0.14356c0.76199,0 1.39514,-0.04785 1.89393,-0.14356c1.74116,-0.30921 3.00378,-0.91659 3.78969,-1.82215c0.88162,-0.97733 1.32336,-2.46634 1.32336,-4.46886l0,-16.01279l3.03691,0z"/>
   <path stroke="null" id="svg_23" fill="#58595b" d="m107.04539,139.81129l-6.61494,0l0,-2.5381l6.61494,0l0,2.5381z"/>
   <path stroke="null" id="svg_24" fill="#58595b" d="m113.40817,139.81129l-6.61494,0l0,-2.5381l6.61494,0l0,2.5381z"/>
   <path stroke="null" id="svg_25" fill="#58595b" d="m121.16221,115.54013c0.4767,0 0.88715,0.17301 1.23317,0.51719c0.34418,0.34786 0.51904,0.75647 0.51904,1.23317c0,0.47854 -0.17485,0.88899 -0.51904,1.23317c-0.34602,0.34786 -0.75647,0.51904 -1.23317,0.51904c-0.4767,0 -0.88715,-0.17117 -1.23317,-0.51904c-0.34418,-0.34418 -0.51719,-0.75463 -0.51719,-1.23317c0,-0.4767 0.17301,-0.8853 0.51719,-1.23317c0.34602,-0.34418 0.75647,-0.51719 1.23317,-0.51719m-2.14424,-3.4676c0.45278,0 0.84481,0.16749 1.17979,0.50063c0.33314,0.33314 0.50063,0.72702 0.50063,1.17979c0,0.45278 -0.16749,0.84481 -0.50063,1.17979c-0.33498,0.33498 -0.72702,0.49879 -1.17979,0.49879c-0.45278,0 -0.84665,-0.16381 -1.17979,-0.49879c-0.33314,-0.33498 -0.50063,-0.72702 -0.50063,-1.17979c0,-0.45278 0.16749,-0.84665 0.50063,-1.17979c0.33314,-0.33314 0.72702,-0.50063 1.17979,-0.50063m-2.18105,3.4676c0.4767,0 0.88899,0.17301 1.23317,0.51719c0.34602,0.34786 0.51904,0.75647 0.51904,1.23317c0,0.47854 -0.17301,0.88899 -0.51904,1.23317c-0.34418,0.34786 -0.75647,0.51904 -1.23317,0.51904c-0.4767,0 -0.88715,-0.17117 -1.23317,-0.51904c-0.34602,-0.34418 -0.51904,-0.75463 -0.51904,-1.23317c0,-0.4767 0.17301,-0.8853 0.51904,-1.23317c0.34602,-0.34418 0.75647,-0.51719 1.23317,-0.51719m5.79037,7.82786l0,13.08263c0,0.8577 -0.28529,1.60864 -0.8577,2.25283c-0.64419,0.73806 -1.42827,1.10801 -2.35775,1.10801l-6.25787,0l0,-2.53812l5.07624,0c0.40676,0 0.75094,-0.1454 1.03807,-0.43069c0.2135,-0.23743 0.3221,-0.54664 0.3221,-0.92948l0,-12.54519l3.03691,0z"/>
   <path stroke="null" id="svg_26" fill="#58595b" d="m164.98684,115.54013c0.4767,0 0.88715,0.17301 1.23317,0.51719c0.34418,0.34786 0.51719,0.75647 0.51719,1.23317c0,0.47854 -0.17301,0.88899 -0.51719,1.23317c-0.34602,0.34786 -0.75647,0.51904 -1.23317,0.51904c-0.4767,0 -0.88715,-0.17117 -1.23317,-0.51904c-0.34418,-0.34418 -0.51719,-0.75463 -0.51719,-1.23317c0,-0.4767 0.17301,-0.8853 0.51719,-1.23317c0.34602,-0.34418 0.75647,-0.51719 1.23317,-0.51719m-4.28848,0c0.4767,0 0.8853,0.17301 1.23317,0.51719c0.34418,0.34786 0.51719,0.75647 0.51719,1.23317c0,0.47854 -0.17301,0.88899 -0.51719,1.23317c-0.34786,0.34786 -0.75647,0.51904 -1.23317,0.51904c-0.50247,0 -0.92396,-0.17117 -1.26998,-0.51904c-0.34602,-0.34418 -0.51904,-0.75463 -0.51904,-1.23317c0,-0.4767 0.17301,-0.8853 0.51904,-1.23317c0.34602,-0.34418 0.76751,-0.51719 1.26998,-0.51719m1.96387,9.93529c-1.5479,0 -2.77555,0.51535 -3.6811,1.5387c-0.97733,1.0712 -1.46508,2.59886 -1.46508,4.57561c0,1.71539 0.48775,3.10869 1.46508,4.18173c0.88162,1.02519 2.06142,1.54974 3.53938,1.57367c1.50189,0.02209 2.83445,-0.19142 4.0032,-0.64419l0,-7.25545c0,-1.28839 -0.40492,-2.29885 -1.21476,-3.04059c-0.69205,-0.61842 -1.57367,-0.92948 -2.64671,-0.92948m0.03681,-2.53628c1.8111,0 3.31299,0.44173 4.50383,1.32152c1.57367,1.16875 2.35959,2.88598 2.35959,5.14802l0,10.0807c0,2.21602 -0.52456,4.03817 -1.57367,5.46828c-0.90555,1.2166 -2.14424,2.12215 -3.71791,2.71665c-1.26262,0.45278 -2.6688,0.67916 -4.2167,0.67916l-3.93142,0c-2.74242,0 -4.95844,-0.67916 -6.64991,-2.03749c-1.90681,-1.54974 -2.85838,-3.82282 -2.85838,-6.8266l0,-5.04127l1.53686,-1.24973l1.50189,0l0,6.21922c0,2.14424 0.54664,3.71607 1.64361,4.71733c0.78592,0.7399 1.95282,1.24053 3.50257,1.50373c0.59634,0.09203 1.69147,0.14172 3.28906,0.14172c1.59576,0 2.70377,-0.04969 3.32403,-0.14172c1.31047,-0.23927 2.35959,-0.64419 3.1455,-1.21844c1.31047,-0.97549 1.96571,-2.63199 1.96571,-4.96765c-1.19268,0.43069 -2.50131,0.65708 -3.93142,0.67916c-2.14608,0.02393 -3.9443,-0.62947 -5.39649,-1.96571c-1.81294,-1.66754 -2.71849,-3.96639 -2.71849,-6.89838c0,-2.31173 0.62027,-4.20566 1.85896,-5.68362c1.50189,-1.76325 3.6222,-2.64487 6.36278,-2.64487"/>
   <path stroke="null" id="svg_27" fill="#58595b" d="m182.43067,125.47617c-1.76509,0 -3.09949,0.63315 -4.00504,1.89393c-0.76199,1.07304 -1.14298,2.47922 -1.14298,4.21854c0,1.74116 0.48959,3.1455 1.46508,4.21854c0.90555,1.00126 2.08534,1.51477 3.53938,1.53686c1.50005,0.02393 2.8234,-0.18958 3.96823,-0.64235l0,-7.25729c0,-1.50005 -0.52456,-2.6099 -1.57183,-3.32403c-0.59818,-0.42885 -1.34912,-0.64419 -2.25283,-0.64419m0,-2.53812c1.93074,0 3.48968,0.48959 4.68236,1.46692c1.45219,1.16875 2.18105,2.84733 2.18105,5.03943l0,10.04388c-0.02393,3.05163 -1.01414,5.35048 -2.96881,6.89838c-1.02335,0.78776 -2.23995,1.33624 -3.64429,1.64545c-0.92948,0.18958 -1.88472,0.28529 -2.86022,0.28529c-0.57241,0 -1.11905,-0.01288 -1.64545,-0.03497l-1.17795,-1.46508l0,-1.14482c0.69021,0.09387 1.44115,0.14356 2.25099,0.14356c0.76383,0 1.3933,-0.04969 1.89577,-0.14356c1.59576,-0.28713 2.78659,-0.80984 3.57251,-1.57367c1.00126,-0.99942 1.51293,-2.54916 1.5387,-4.64555c-1.19084,0.42885 -2.49026,0.65524 -3.89645,0.67916c-2.57309,0.02393 -4.61058,-0.88162 -6.11247,-2.71665c-1.3344,-1.59576 -2.00068,-3.64613 -2.00068,-6.14928c0,-2.47738 0.70309,-4.46702 2.10743,-5.96891c1.50189,-1.57183 3.52649,-2.35959 6.0775,-2.35959"/>
   <path stroke="null" id="svg_28" fill="#58595b" d="m200.69424,122.97412c2.17001,0.16749 3.9443,0.91843 5.32839,2.25283c1.52398,1.47612 2.28596,3.39398 2.28596,5.7554l0,5.46828c0,0.28713 -0.03681,0.55953 -0.10675,0.82273l1.03623,0l0,2.53628l-0.5356,0l-1.00126,-1.24973l-0.10675,0c-0.21534,0.23927 -0.44173,0.45278 -0.67916,0.64235c-0.57425,0.40676 -1.18163,0.60738 -1.82399,0.60738l-11.72247,0l0,-2.53628l10.54267,0c0.40492,0 0.73254,-0.127 0.98285,-0.37731c0.25031,-0.24847 0.37547,-0.57609 0.37547,-0.98285l0,-4.50199c0,-1.69331 -0.52456,-3.09949 -1.57183,-4.21854c-1.07304,-1.14298 -2.75162,-1.72644 -5.03943,-1.75036c-0.66812,0 -1.22765,0.03313 -1.68226,0.10491l0,-2.39272c0.8577,-0.14356 1.77613,-0.21718 2.75346,-0.21718c0.33314,0 0.65524,0.01288 0.96445,0.03681"/>
   <path stroke="null" id="svg_29" fill="#58595b" d="m215.56425,139.81129l-6.61494,0l0,-2.5381l6.61494,0l0,2.5381z"/>
   <path stroke="null" id="svg_30" fill="#58595b" d="m221.92703,139.81129l-6.61494,0l0,-2.5381l6.61494,0l0,2.5381z"/>
   <path stroke="null" id="svg_31" fill="#58595b" d="m229.64685,115.54013c0.4767,0 0.88715,0.17301 1.23317,0.51719c0.34418,0.34786 0.51904,0.75647 0.51904,1.23317c0,0.47854 -0.17485,0.88899 -0.51904,1.23317c-0.34602,0.34786 -0.75647,0.51904 -1.23317,0.51904c-0.49879,0 -0.92396,-0.17117 -1.26814,-0.51904c-0.34602,-0.34418 -0.51904,-0.75463 -0.51904,-1.23317c0,-0.4767 0.17301,-0.8853 0.51904,-1.23317c0.34418,-0.34418 0.76935,-0.51719 1.26814,-0.51719m1.50005,7.82786l0,13.08263c0,0.28713 -0.03313,0.55953 -0.10491,0.82273l1.89393,0l0,2.53812l-1.39514,0l-1.00126,-1.25157l-0.10491,0c-0.66996,0.83377 -1.50373,1.25157 -2.50315,1.25157l-6.25603,0l0,-2.53812l5.07624,0c0.38099,0 0.69205,-0.11964 0.92948,-0.35891c0.28713,-0.23743 0.42885,-0.57057 0.42885,-1.00126l0,-12.54519l3.03691,0z"/>
   <path stroke="null" id="svg_32" fill="#58595b" d="m239.29815,139.81129l-6.61488,0l0,-2.5381l6.61488,0l0,2.5381z"/>
   <path stroke="null" id="svg_33" fill="#58595b" d="m260.92368,125.58402c-1.93074,0 -3.75288,0.56137 -5.47012,1.68042c-2.85653,1.90681 -5.17011,5.24373 -6.93335,10.00891l17.65824,0c0.40492,0 0.73254,-0.127 0.98285,-0.37731c0.25031,-0.24847 0.37547,-0.57609 0.37547,-0.98285l0,-4.5388c-0.02393,-1.9289 -0.7399,-3.41974 -2.14424,-4.46702c-1.16875,-0.88162 -2.65776,-1.32336 -4.46886,-1.32336m0.14356,-2.64487c2.76451,-0.04785 5.00446,0.69021 6.71985,2.21602c1.85896,1.66938 2.78843,3.83755 2.78843,6.50635l0,4.78911c0,0.97733 -0.34602,1.80006 -1.03623,2.46634c-0.62027,0.5945 -1.34728,0.89267 -2.18105,0.89267l-28.31135,0l0,-2.53628l6.43456,0l0,-13.90536l3.03875,0l0,7.86283c1.5976,-2.71481 3.44367,-4.75414 5.54006,-6.11063c2.12215,-1.40802 4.45597,-2.1332 7.00698,-2.18105"/>
   <path stroke="null" id="svg_34" fill="#58595b" d="m34.51074,167.52485l-5.78117,0l0,-2.92648l14.75753,0l0,2.92648l-5.78485,0l0,18.84724l-3.19151,0l0,-18.84724z"/>
   <path stroke="null" id="svg_35" fill="#58595b" d="m60.83745,176.85881l-8.36714,0l0,9.51381l-3.19151,0l0,-21.77371l3.19151,0l0,9.33527l8.36714,0l0,-9.33527l3.19151,0l0,21.77371l-3.19151,0l0,-9.51381z"/>
   <path stroke="null" id="svg_36" fill="#58595b" d="m71.76571,164.59871l3.19151,0l0,14.05076c0.02025,1.48348 0.43621,2.61542 1.24605,3.39398c0.79328,0.81536 1.81294,1.22581 3.05715,1.22581c1.24605,0 2.27492,-0.41044 3.08476,-1.22581c0.79328,-0.77855 1.1982,-1.91049 1.2166,-3.39398l0,-14.05076l3.1952,0l0,14.39679c-0.04049,2.28964 -0.75831,4.10627 -2.15713,5.44987c-1.40802,1.38409 -3.18783,2.08718 -5.33944,2.10743c-2.11295,-0.02025 -3.87804,-0.7215 -5.2971,-2.10559c-1.44667,-1.33992 -2.17921,-3.15654 -2.19762,-5.44435l0,-14.40415z"/>
   <path stroke="null" id="svg_37" fill="#58595b" d="m97.66997,174.14292l4.84433,0c1.1982,-0.02025 2.09639,-0.37915 2.69825,-1.07856c0.58898,-0.64787 0.88346,-1.44667 0.88346,-2.3964c-0.02025,-1.13746 -0.37179,-1.96019 -1.05832,-2.46818c-0.54112,-0.45093 -1.3252,-0.67548 -2.34854,-0.67548l-5.01918,0l0,6.61862zm-3.19151,-9.5451l8.2383,0c1.75773,0 3.19336,0.47854 4.30137,1.43563c1.33808,1.08592 2.03381,2.63199 2.09271,4.64371c-0.04049,2.95776 -1.39698,4.96765 -4.07314,6.03332l4.8793,9.66289l-3.79153,0l-4.36579,-9.30582l-4.0897,0l0,9.30582l-3.19151,0l0,-21.77555z"/>
   <path stroke="null" id="svg_38" fill="#58595b" d="m126.08347,178.57899l-3.05163,-9.52669l-0.05706,0l-3.05347,9.52669l6.16216,0zm0.91107,2.92463l-7.99903,0l-1.61968,4.86826l-3.38477,0l7.66589,-21.77371l2.67616,0l7.66589,21.77371l-3.37005,0l-1.63441,-4.86826z"/>
   <path stroke="null" id="svg_39" fill="#58595b" d="m139.30361,177.41595l-6.34806,-12.81759l3.38661,0l4.46886,9.66105l4.4707,-9.66105l3.38661,0l-6.35174,12.81391l0,8.9598l-3.01298,0l0,-8.95612z"/>
   <path stroke="null" id="svg_40" fill="#58595b" d="m161.60596,178.57899l-3.05163,-9.52669l-0.05706,0l-3.05347,9.52669l6.16216,0zm0.91107,2.92463l-7.99903,0l-1.61968,4.86826l-3.38477,0l7.66589,-21.77371l2.67616,0l7.66589,21.77371l-3.37005,0l-1.63441,-4.86826z"/>
   <path stroke="null" id="svg_41" fill="#58595b" d="m173.59786,164.59798l2.29699,0l0,5.37441l-2.29699,0l0,-5.37441z"/>
   <path stroke="null" id="svg_42" fill="#58595b" d="m184.07171,181.09705c1.67858,1.42643 3.67742,2.1516 5.99283,2.17185c2.74058,-0.04049 4.13204,-1.05279 4.16885,-3.03507c0.02025,-1.62521 -0.89635,-2.6007 -2.74794,-2.93016c-0.85033,-0.11964 -1.77797,-0.254 -2.79212,-0.40308c-1.81478,-0.30921 -3.19336,-1.00126 -4.13756,-2.07798c-0.97549,-1.10617 -1.4614,-2.44977 -1.4614,-4.03633c0,-1.90313 0.61106,-3.43815 1.83503,-4.60322c1.18347,-1.15403 2.86574,-1.743 5.04311,-1.76509c2.62094,0.06258 4.89955,0.81168 6.8358,2.25099l-1.77981,2.71113c-1.58103,-1.07672 -3.32403,-1.63625 -5.22532,-1.6749c-0.98469,0 -1.80374,0.25216 -2.46082,0.76199c-0.68468,0.52824 -1.03623,1.31415 -1.05648,2.36143c0,0.62763 0.23743,1.19452 0.71045,1.70435c0.47302,0.51719 1.22949,0.87426 2.27124,1.07488c0.57977,0.09939 1.36937,0.2135 2.37247,0.34418c1.97859,0.27976 3.43815,1.01046 4.38419,2.19762c0.935,1.16507 1.40434,2.52155 1.40434,4.06578c-0.10675,4.16333 -2.57493,6.27628 -7.40269,6.33702c-3.12157,0 -5.8051,-0.99022 -8.05057,-2.97249l2.09639,-2.4829z"/>
   <path stroke="null" id="svg_43" fill="#58595b" d="m217.99967,176.70951l0,6.55788l4.93083,0c1.18716,-0.01841 2.05774,-0.35339 2.6099,-1.0031c0.55032,-0.63867 0.82641,-1.39698 0.82641,-2.27676c0,-0.89819 -0.27608,-1.6657 -0.82641,-2.30621c-0.55217,-0.62763 -1.42275,-0.95156 -2.6099,-0.97181l-4.93083,0zm0,-9.18435l0,6.25971l4.61794,0c1.16875,0 2.02645,-0.31657 2.57677,-0.94604c0.55953,-0.57977 0.83929,-1.31047 0.83929,-2.1921c0,-0.87978 -0.27976,-1.62705 -0.83929,-2.23627c-0.55032,-0.57057 -1.40802,-0.86506 -2.57677,-0.8853l-4.61794,0zm-3.19151,-2.92648l8.17204,0c2.0743,0.02025 3.63141,0.55769 4.67316,1.61232c1.05095,1.06568 1.57735,2.47554 1.57735,4.22774c0.01841,0.89451 -0.18774,1.7522 -0.62211,2.56757c-0.22087,0.38836 -0.53928,0.75647 -0.95525,1.10617c-0.41228,0.36811 -0.9258,0.70125 -1.53318,0.99942l0,0.06074c1.15218,0.30737 2.02277,0.93132 2.61174,1.86632c0.55217,0.96629 0.82641,2.0154 0.82641,3.15102c-0.01841,1.88104 -0.58898,3.37005 -1.70619,4.46518c-1.11169,1.14482 -2.49579,1.71723 -4.15596,1.71723l-8.88802,0l0,-21.77371z"/>
   <path stroke="null" id="svg_44" fill="#58595b" d="m238.99356,175.48559c0,2.14608 0.0773,3.59644 0.23191,4.35474c0.1362,0.75831 0.41228,1.37121 0.82641,1.84055c0.33866,0.44909 0.78223,0.81536 1.33256,1.09329c0.54112,0.32946 1.18716,0.49511 1.94178,0.49511c0.76383,0 1.42459,-0.16565 1.98595,-0.49511c0.53192,-0.27792 0.95525,-0.64419 1.27366,-1.09329c0.41596,-0.46934 0.70125,-1.08224 0.85586,-1.84055c0.1454,-0.75831 0.21718,-2.20866 0.21718,-4.35474c0,-2.14424 -0.07178,-3.60564 -0.21718,-4.38419c-0.15461,-0.73806 -0.43989,-1.34176 -0.85586,-1.8111c-0.31842,-0.44909 -0.74174,-0.82273 -1.27366,-1.12274c-0.56137,-0.28897 -1.22213,-0.44357 -1.98595,-0.46382c-0.75463,0.02025 -1.40066,0.17485 -1.94178,0.46382c-0.55032,0.30001 -0.9939,0.67364 -1.33256,1.12274c-0.41412,0.46934 -0.69021,1.07304 -0.82641,1.80926c-0.15461,0.78039 -0.23191,2.24179 -0.23191,4.38603m-3.19151,0c0,-2.53444 0.07178,-4.22959 0.21718,-5.08912c0.15277,-0.85586 0.3902,-1.54974 0.70861,-2.07982c0.50983,-0.99942 1.32888,-1.89393 2.45714,-2.678c1.10801,-0.79144 2.49026,-1.1982 4.1486,-1.22029c1.67858,0.02209 3.07372,0.43069 4.19461,1.22581c1.10617,0.78592 1.90681,1.68226 2.39824,2.6872c0.35707,0.52824 0.6037,1.22029 0.73806,2.07614c0.12332,0.8577 0.1859,2.54916 0.1859,5.07808c0,2.49026 -0.06258,4.17253 -0.1859,5.04679c-0.13436,0.87794 -0.38099,1.57919 -0.73806,2.10743c-0.49143,1.00494 -1.29207,1.89025 -2.40008,2.65776c-1.11905,0.79696 -2.51419,1.21476 -4.19277,1.25526c-1.65834,-0.04049 -3.04059,-0.4583 -4.1486,-1.25526c-1.12826,-0.76751 -1.9473,-1.65281 -2.45714,-2.65776c-0.15461,-0.32946 -0.29633,-0.64235 -0.41965,-0.94236c-0.11595,-0.30737 -0.2135,-0.69573 -0.28897,-1.16507c-0.1454,-0.87426 -0.21718,-2.55652 -0.21718,-5.04679"/>
   <path stroke="null" id="svg_45" fill="#58595b" d="m263.55863,178.26792l-4.62714,8.10394l-3.60012,0l6.44745,-11.15374l-6.04253,-10.61998l3.61484,0l4.2075,7.55178l4.2075,-7.55178l3.60012,0l-6.22842,10.61998l6.64807,11.15374l-3.61484,0l-4.61242,-8.10394z"/>
  </g>
 </g>
</svg>